<svg id="Layer_1" data-name="Layer 1" xmlns="http://www.w3.org/2000/svg" viewBox="0 0 757.7 448.86"><defs><style>.cls-1{fill:#e30613;}</style></defs><path d="M25.28,198.73H69.85c9,0,25,.22,36.26,7.33C118.48,213.81,121,227.38,121,233.2c0,21.54-12.37,28.43-18.77,31.88a26.57,26.57,0,0,1-8.75,3c-2.34.21-3.41.86-3.41,2.58s1.28,2.37,5.55,3.66l6.82,2.16A40.67,40.67,0,0,1,130,315.06c0,19.6-10.44,29.08-15.35,32.52-13,9.27-32.42,9.27-42.65,9.27H25.28Zm42.66,64.84c8.52,0,17.91-1.29,23.24-6.24a26.34,26.34,0,0,0,8.32-19.39c0-22.4-23.46-22.4-39-22.4H45.54v48Zm-22.4,74.75H75.83c8.1,0,31.34,0,31.34-26.71,0-16.8-9.38-27.14-25.8-30.16-.43,0-11.94-1.94-35.83-1.29Z"/><path d="M240.26,234.71c4.69,14,6,32.53,6,43.51,0,37.7-10.45,83.37-52.68,83.37-38.38,0-52.89-39-52.89-81.21,0-24.13,3.84-46.1,12.8-60.53,13-21.12,28.58-23.48,40.09-23.48C220,196.37,233.86,215.75,240.26,234.71ZM194,215.32c-13.43,0-21.75,9.48-26.23,24.34-3,9.48-4.69,23.48-4.69,40.07,0,20,2.77,62.25,30.07,62.25,22.18,0,30.71-23.05,30.71-63.11C223.84,258,221.92,215.32,194,215.32Z"/><path d="M338.16,240.09c-7.26-14.64-14.08-25.42-32.21-25.42-9.59,0-23.88,5.61-23.88,20.9,0,14.22,11.94,20.25,17.06,22.62l31.14,14.21c5.33,2.59,16.84,9.05,23.45,20.68,1.92,3.67,5.34,9.7,5.34,21.33,0,14.86-5.34,27.14-15.36,35.76-12.8,11.2-25.59,11.2-33.91,11.2-9.59,0-25-3.23-35.83-12.49-10-8.41-13.86-16.37-17.48-23.92l18.76-11.84c4.48,12.71,14.93,28.43,36.05,28.43,13.22,0,27.5-8.18,27.5-25.42,0-7.32-2.77-16.58-19.19-24.12L291.88,279.3C282.28,275,271,267,266.07,258.19c-2.13-3.88-4.69-11-4.69-22,0-23.9,20.05-40.71,44.57-40.71,23.89,0,40.95,12.07,50.55,33.61Z"/><path d="M478.7,382.05c-10.87-.22-25.37-.43-36.89-24.56a40.19,40.19,0,0,1-9,3,54.61,54.61,0,0,1-10.66,1.08c-38.39,0-52.89-39-52.89-81.21,0-24.13,3.84-46.1,12.79-60.53,13-21.12,28.58-23.48,40.1-23.48,26.44,0,40.31,19.38,46.7,38.34,4.7,14,6,32.53,6,43.51,0,24.56-4.47,52.56-19.61,69.36,7,10.56,13.43,12.71,23.45,12.5ZM422.62,215.32c-13.44,0-21.76,9.48-26.23,24.34-3,9.48-4.7,23.48-4.7,40.07,0,20,2.78,62.25,30.29,62.25a24.1,24.1,0,0,0,9.81-1.94L417.28,317l10.88-7.75,14.72,20.89c6.82-10.33,9.81-28,9.81-51.26C452.69,258,450.77,215.32,422.62,215.32Z"/><path d="M520.3,198.73V304.07c0,17,3.84,37.48,29.43,37.48,7.25,0,18.34-3.23,23.89-13.57,4.26-8.62,4.69-20.68,4.69-29.29v-100h19.62v106.2c0,15.51-3.2,31.45-13.86,42.44-12.58,13.14-27.73,14.22-39.24,14.22-7.68,0-25.38-2.59-36.26-18.53-8.74-12.93-10-25.85-10-40.07V198.73Z"/><path d="M634.83,198.73h97.25v19.39H657.22V264h55.24v20H657.65v52.77h78.48v20H634.83Z"/><path class="cls-1" d="M86.9,414.29H81.25a6.89,6.89,0,0,1-7.2-7.27V390.83a6.89,6.89,0,0,1,7.2-7.27H86.9a6.86,6.86,0,0,1,7.2,7.27,1.73,1.73,0,0,1-1.8,1.81,1.76,1.76,0,0,1-1.8-1.81,3.27,3.27,0,0,0-3.6-3.64H81.25a3.32,3.32,0,0,0-3.6,3.64V407a3.31,3.31,0,0,0,3.6,3.63H86.9A3.27,3.27,0,0,0,90.5,407a1.73,1.73,0,0,1,1.8-1.81A1.76,1.76,0,0,1,94.1,407,6.86,6.86,0,0,1,86.9,414.29Z"/><path class="cls-1" d="M86.9,414.42H81.25a7,7,0,0,1-7.33-7.4V390.83a7,7,0,0,1,7.33-7.4H86.9a7,7,0,0,1,7.33,7.4,1.86,1.86,0,0,1-1.93,1.95,1.9,1.9,0,0,1-1.93-1.95,3.15,3.15,0,0,0-3.47-3.5H81.25a3.17,3.17,0,0,0-3.47,3.5V407a3.17,3.17,0,0,0,3.47,3.5H86.9a3.15,3.15,0,0,0,3.47-3.5,1.86,1.86,0,0,1,1.93-1.95A1.91,1.91,0,0,1,94.23,407,7,7,0,0,1,86.9,414.42ZM81.25,383.7a6.72,6.72,0,0,0-7.07,7.13V407a6.73,6.73,0,0,0,7.07,7.14H86.9A6.73,6.73,0,0,0,94,407a1.62,1.62,0,0,0-1.67-1.68A1.6,1.6,0,0,0,90.63,407a3.42,3.42,0,0,1-3.73,3.77H81.25A3.44,3.44,0,0,1,77.52,407V390.83a3.44,3.44,0,0,1,3.73-3.77H86.9a3.42,3.42,0,0,1,3.73,3.77,1.67,1.67,0,1,0,3.34,0,6.72,6.72,0,0,0-7.07-7.13Z"/><path class="cls-1" d="M170.17,400.22l3.75,11.94a2.69,2.69,0,0,1,.11.62,1.8,1.8,0,0,1-1.85,1.77,1.67,1.67,0,0,1-1.65-1.25l-4-12.51h-8.74v11.94a1.74,1.74,0,0,1-1.8,1.82,1.77,1.77,0,0,1-1.8-1.82V385.38a1.84,1.84,0,0,1,1.8-1.82h11.06a6.85,6.85,0,0,1,7.19,7.27v2.7A6.83,6.83,0,0,1,170.17,400.22Zm.51-9.39c0-2.39-1.33-3.64-3.59-3.64h-9.26v10h9.26a3.26,3.26,0,0,0,3.59-3.63Z"/><path class="cls-1" d="M172.18,414.68a1.78,1.78,0,0,1-1.77-1.34l-3.93-12.41H158v11.8a1.87,1.87,0,0,1-1.94,1.95,1.91,1.91,0,0,1-1.93-1.95V385.38a2,2,0,0,1,1.93-1.95h11.06a7,7,0,0,1,7.33,7.4v2.7a7,7,0,0,1-4.09,6.77l3.72,11.82a3,3,0,0,1,.11.66A1.93,1.93,0,0,1,172.18,414.68Zm-14.48-14h9l0,.09,4,12.51a1.53,1.53,0,0,0,1.52,1.15,1.66,1.66,0,0,0,1.72-1.63,2.6,2.6,0,0,0-.1-.59l-3.79-12,.11,0a6.72,6.72,0,0,0,4-6.57v-2.7a6.72,6.72,0,0,0-7.06-7.13H156a1.69,1.69,0,0,0-1.66,1.68v27.35a1.67,1.67,0,1,0,3.33,0Zm9.39-3.37H157.7V387.06h9.39a3.42,3.42,0,0,1,3.73,3.77v2.7A3.41,3.41,0,0,1,167.09,397.29ZM158,397h9.12a3.14,3.14,0,0,0,3.46-3.5v-2.7a3.14,3.14,0,0,0-3.46-3.5H158Z"/><path class="cls-1" d="M251.08,414.5a1.75,1.75,0,0,1-1.75-1.51c-.41-2.39-.82-4.83-1.18-7.27H238L236.48,413a1.69,1.69,0,0,1-1.7,1.45,1.79,1.79,0,0,1-1.85-1.76,1.19,1.19,0,0,1,0-.42c1.7-8.4,5.14-25.27,5.14-25.27.52-2.55,2.52-3.69,5.14-3.69,3.76,0,4.89,2.08,5.45,5.19l4.22,23.83v.41A1.75,1.75,0,0,1,251.08,414.5ZM244.86,388c-.21-.93-.77-1-1.65-1-1.23,0-1.59.68-1.9,2.19l-2.62,13h8.95Z"/><path class="cls-1" d="M251.08,414.63A1.89,1.89,0,0,1,249.2,413c-.41-2.42-.81-4.78-1.16-7.16h-10L236.61,413a1.83,1.83,0,0,1-1.83,1.56,1.93,1.93,0,0,1-2-1.9.53.53,0,0,0,0-.13.64.64,0,0,1,0-.33c1.67-8.29,5.1-25.09,5.13-25.26.5-2.44,2.37-3.79,5.27-3.79,3.83,0,5,2.12,5.58,5.3L253,412.29v.44A1.88,1.88,0,0,1,251.08,414.63Zm-13.22-9h10.4l0,.11c.35,2.43.76,4.82,1.18,7.27a1.65,1.65,0,0,0,3.29-.24v-.41l-4.21-23.8c-.58-3.14-1.67-5.09-5.33-5.09-2.76,0-4.54,1.28-5,3.59,0,.16-3.46,17-5.14,25.27a.45.45,0,0,0,0,.23.78.78,0,0,1,0,.16,1.66,1.66,0,0,0,1.71,1.63,1.56,1.56,0,0,0,1.57-1.35Zm9.94-3.37h-9.27l0-.16,2.62-13c.31-1.52.71-2.29,2-2.29.83,0,1.54.09,1.78,1.14h0Zm-9-.26h8.63l-2.75-14c-.18-.81-.6-.93-1.52-.93-1.15,0-1.48.63-1.77,2.07Z"/><path class="cls-1" d="M328.8,387.14H315.64v9.76h6.06a1.73,1.73,0,0,1,1.8,1.82,1.75,1.75,0,0,1-1.8,1.81h-6.06v12.15a1.74,1.74,0,0,1-1.8,1.82,1.77,1.77,0,0,1-1.8-1.82V385.33a1.83,1.83,0,0,1,1.8-1.82h15a1.74,1.74,0,0,1,1.8,1.82A1.76,1.76,0,0,1,328.8,387.14Z"/><path class="cls-1" d="M313.84,414.63a1.89,1.89,0,0,1-1.93-1.95V385.33a2,2,0,0,1,1.93-1.95h15a1.86,1.86,0,0,1,1.93,1.95,1.91,1.91,0,0,1-1.93,1.95h-13v9.49h5.93a1.86,1.86,0,0,1,1.93,2,1.9,1.9,0,0,1-1.93,1.95h-5.93v12A1.86,1.86,0,0,1,313.84,414.63Zm0-31a1.7,1.7,0,0,0-1.67,1.69v27.35a1.67,1.67,0,1,0,3.34,0V400.4h6.19a1.69,1.69,0,0,0,0-3.37h-6.19V387H328.8a1.69,1.69,0,0,0,0-3.37Z"/><path class="cls-1" d="M401.28,387.19h-6.94v25.54a1.74,1.74,0,0,1-1.8,1.82,1.76,1.76,0,0,1-1.8-1.82V387.19H383.8a1.73,1.73,0,0,1-1.8-1.81,1.76,1.76,0,0,1,1.8-1.82h17.48a1.73,1.73,0,0,1,1.79,1.82A1.75,1.75,0,0,1,401.28,387.19Z"/><path class="cls-1" d="M392.54,414.68a1.9,1.9,0,0,1-1.93-1.95v-25.4h-6.82a1.85,1.85,0,0,1-1.92-1.95,1.9,1.9,0,0,1,1.92-1.95h17.49a1.85,1.85,0,0,1,1.92,1.95,1.9,1.9,0,0,1-1.92,1.95h-6.81v25.4A1.86,1.86,0,0,1,392.54,414.68Zm-8.75-31a1.68,1.68,0,0,0,0,3.36h7.08v25.67a1.62,1.62,0,0,0,1.67,1.68,1.6,1.6,0,0,0,1.66-1.68V387.06h7.08a1.68,1.68,0,0,0,0-3.36Z"/><path class="cls-1" d="M540.47,414.29h-5.65a6.88,6.88,0,0,1-7.2-7.27V390.83a6.88,6.88,0,0,1,7.2-7.27h5.65c4.06,0,7.15,2.65,7.2,7v.1a1.73,1.73,0,0,1-1.8,1.77,1.75,1.75,0,0,1-1.8-1.77,3.25,3.25,0,0,0-3.6-3.48h-5.65a3.32,3.32,0,0,0-3.6,3.64V407a3.31,3.31,0,0,0,3.6,3.63h5.65c2.26,0,3.6-1.19,3.6-3.63v-5.5h-4.63a1.74,1.74,0,0,1-1.8-1.82,1.76,1.76,0,0,1,1.8-1.81h6.43a1.83,1.83,0,0,1,1.8,1.81V407A6.86,6.86,0,0,1,540.47,414.29Z"/><path class="cls-1" d="M540.47,414.42h-5.65a7.05,7.05,0,0,1-7.34-7.4V390.83a7.06,7.06,0,0,1,7.34-7.4h5.65c4.34,0,7.28,2.87,7.33,7.14v.1a1.85,1.85,0,0,1-1.93,1.9,1.89,1.89,0,0,1-1.93-1.89,3.12,3.12,0,0,0-3.47-3.35h-5.65a3.17,3.17,0,0,0-3.47,3.5V407a3.17,3.17,0,0,0,3.47,3.5h5.65c2.27,0,3.47-1.21,3.47-3.5v-5.37h-4.5a1.86,1.86,0,0,1-1.93-1.95,1.91,1.91,0,0,1,1.93-1.95h6.43a2,2,0,0,1,1.93,1.95V407A7,7,0,0,1,540.47,414.42Zm-5.65-30.72a6.72,6.72,0,0,0-7.07,7.13V407a6.73,6.73,0,0,0,7.07,7.14h5.65a6.72,6.72,0,0,0,7.06-7.14V399.7a1.69,1.69,0,0,0-1.66-1.68h-6.43a1.63,1.63,0,0,0-1.67,1.68,1.61,1.61,0,0,0,1.67,1.69h4.76V407c0,2.43-1.33,3.77-3.73,3.77h-5.65a3.45,3.45,0,0,1-3.74-3.77V390.83a3.45,3.45,0,0,1,3.74-3.77h5.65a3.39,3.39,0,0,1,3.73,3.61,1.61,1.61,0,0,0,1.67,1.64,1.58,1.58,0,0,0,1.66-1.64v-.1c0-4.11-2.88-6.87-7.06-6.87Z"/><path class="cls-1" d="M615.77,414.29h-8.22a1.74,1.74,0,0,1-1.85-1.82,1.77,1.77,0,0,1,1.85-1.82h2.31V387.19h-2.31a1.74,1.74,0,0,1-1.85-1.81,1.77,1.77,0,0,1,1.85-1.82h8.22a1.74,1.74,0,0,1,1.85,1.82,1.77,1.77,0,0,1-1.85,1.81h-2.31v23.46h2.31a1.82,1.82,0,1,1,0,3.64Z"/><path class="cls-1" d="M615.77,414.42h-8.22a1.88,1.88,0,0,1-2-1.95,1.9,1.9,0,0,1,2-2h2.18V387.33h-2.18a1.88,1.88,0,0,1-2-1.95,1.9,1.9,0,0,1,2-1.95h8.22a1.88,1.88,0,0,1,2,1.95,1.9,1.9,0,0,1-2,1.95h-2.18v23.19h2.18a2,2,0,1,1,0,3.9Zm-8.22-3.63a1.64,1.64,0,0,0-1.72,1.68,1.62,1.62,0,0,0,1.72,1.69h8.22a1.69,1.69,0,1,0,0-3.37h-2.44V387.06h2.44a1.64,1.64,0,0,0,1.72-1.68,1.61,1.61,0,0,0-1.72-1.68h-8.22a1.64,1.64,0,0,0-1.72,1.68,1.61,1.61,0,0,0,1.72,1.68H610v23.73Z"/><path class="cls-1" d="M693.91,414.34h-2.06a2.76,2.76,0,0,1-1.65-1.09l-10.43-23.93v23.41a1.74,1.74,0,0,1-1.8,1.82,1.77,1.77,0,0,1-1.8-1.82V385.38a1.83,1.83,0,0,1,1.8-1.82h2a2.78,2.78,0,0,1,1.65,1.09l10.43,23.93V385.22a1.8,1.8,0,1,1,3.6,0v27.3A1.83,1.83,0,0,1,693.91,414.34Z"/><path class="cls-1" d="M678,414.68a1.9,1.9,0,0,1-1.93-1.95V385.38a2,2,0,0,1,1.93-1.95h2a2.84,2.84,0,0,1,1.77,1.16L692,408V385.22a1.87,1.87,0,0,1,1.94-2,1.91,1.91,0,0,1,1.93,2v27.31a2,2,0,0,1-1.93,1.94h-2.06a2.88,2.88,0,0,1-1.76-1.16L679.9,390v22.78A1.86,1.86,0,0,1,678,414.68Zm0-31a1.7,1.7,0,0,0-1.67,1.68v27.35a1.67,1.67,0,1,0,3.34,0v-24l.25.58,10.43,23.93a2.72,2.72,0,0,0,1.53,1h2.06a1.69,1.69,0,0,0,1.66-1.68V385.22a1.62,1.62,0,0,0-1.66-1.68,1.6,1.6,0,0,0-1.67,1.68v24l-.25-.58L681.55,384.7a2.65,2.65,0,0,0-1.53-1Z"/><rect class="cls-1" x="253.23" y="106.44" width="70.48" height="5.82" transform="translate(64.96 321.99) rotate(-64.33)"/><rect class="cls-1" x="343.01" y="71.39" width="5.82" height="73.59" transform="translate(-12.72 160.56) rotate(-25.67)"/><polygon class="cls-1" points="306.36 78.85 301.12 76.33 317.48 42.29 332.61 73.77 327.36 76.29 317.48 55.73 306.36 78.85"/><polygon class="cls-1" points="373.79 159.44 261.16 159.44 270.58 139.85 275.83 142.37 270.42 153.61 364.54 153.61 359.24 142.61 364.49 140.09 373.79 159.44"/><rect class="cls-1" x="354.73" y="106.45" width="70.48" height="5.82" transform="translate(122.47 413.47) rotate(-64.33)"/><rect class="cls-1" x="444.52" y="71.41" width="5.82" height="73.59" transform="translate(-2.7 204.54) rotate(-25.67)"/><polygon class="cls-1" points="407.87 78.86 402.62 76.34 418.98 42.31 434.12 73.78 428.87 76.3 418.98 55.74 407.87 78.86"/><polygon class="cls-1" points="475.3 159.45 362.67 159.45 372.08 139.86 377.33 142.38 371.93 153.62 466.04 153.62 460.75 142.62 466 140.1 475.3 159.45"/><rect class="cls-1" x="303.05" y="81.72" width="70.48" height="2.38" transform="translate(116.95 351.83) rotate(-64.31)"/><rect class="cls-1" x="394.56" y="44.95" width="2.38" height="73.59" transform="translate(3.66 179.53) rotate(-25.67)"/><polygon class="cls-1" points="354.63 51.66 352.49 50.63 367.3 19.82 380.88 48.07 378.74 49.1 367.3 25.31 354.63 51.66"/><polygon class="cls-1" points="420.87 131.27 313.72 131.27 321.95 114.16 324.09 115.19 317.5 128.89 417.09 128.89 410.62 115.42 412.76 114.39 420.87 131.27"/></svg>