<?xml version="1.0" encoding="UTF-8"?><svg id="Capa_1" xmlns="http://www.w3.org/2000/svg" viewBox="0 0 1615.7 385.7"><defs><style>.cls-1,.cls-2{fill:#fff;}.cls-2{fill-rule:evenodd;}</style></defs><path class="cls-1" d="m824.7,163.2h39.5l-3.8,16.1c7.3-6.8,14.2-11.6,20.7-14.4,6.5-2.8,13.8-4.3,22-4.3s15.4,1.6,19.8,4.7c4.4,3.1,7.5,7.8,9.3,14,8.4-7.2,15.6-12.2,21.7-14.8,6.1-2.6,13.2-3.9,21.2-3.9,11.8,0,20.2,3.5,25.2,10.6,5,7,5.7,18.1,2.1,33.1l-16.5,69.6h-42.4l15-63.2c1.2-5,1.1-8.8-.3-11.2-1.9-3.8-5-5.8-9.2-5.8s-9.4,1.8-13.3,5.4c-3.9,3.6-6.8,9.5-8.7,17.5l-13.6,57.3h-42.4l14.5-61c1.2-4.9,1.7-8.2,1.5-9.9-.2-2.8-1.3-5-3.1-6.7-1.8-1.7-4.2-2.6-7.2-2.6-4.9,0-9.3,1.8-13.3,5.5-4,3.7-7,9.7-9,18.2l-13.4,56.5h-42.4l26.3-110.7Zm-53.5,0h42.4l-26.3,110.7h-42.4l26.3-110.7Zm10-42h42.4l-6.8,28.8h-42.4l6.8-28.8Zm-146.9,42h50.3l10.3,30.9,27.7-30.9h46.7l-50.2,52.7,26.7,57.9h-49.5l-11.9-35.7-32.7,35.7h-45.9l54-57.9-25.6-52.7Zm-115.3-42h126.3l-7.7,32.6h-78.9l-5.8,24.3h73.2l-7.4,31.1h-73.2l-7.1,30.1h81.3l-8.2,34.6h-128.6l36.2-152.7Z"/><path class="cls-1" d="m1529.2,218c-2.4,9.9-2.1,17.2.8,22,2.9,4.7,7.3,7.1,13.3,7.1s11.6-2.3,16.6-7c5-4.7,8.8-12.2,11.2-22.5,2.3-9.6,2-16.8-.8-21.5-2.8-4.7-7.1-7-13-7s-11.8,2.4-16.9,7.1c-5.2,4.8-8.9,12-11.2,21.8m-42.5,0c4-16.9,13-30.9,27-41.8,14-10.9,30.6-16.4,50-16.4s37.3,6.4,45.6,19.3c6.6,10.4,8.1,23.1,4.5,38.3-4,17.1-13,31-26.8,41.9-13.8,10.9-30.7,16.3-50.6,16.3s-31-4.5-39.8-13.6c-10.8-11.2-14-25.9-9.7-44Zm-83.1-2.1c-1.9,8-1.6,13.9.9,17.8,2.5,3.9,6.5,5.8,12.1,5.8s10.2-2,14.7-6c4.5-4,7.7-10,9.7-18.1,1.9-8.1,1.5-14.3-1.3-18.5-2.7-4.3-6.8-6.4-12.2-6.4s-10.2,2-14.4,5.9c-4.2,3.9-7.3,10.4-9.5,19.6Zm52.6-53.6h39.6l-24.8,104.4-1.1,4.9c-1.6,6.9-4.7,13.5-9.1,19.8-4.4,6.3-9.6,11.4-15.4,15.2-5.8,3.9-12.7,6.7-20.6,8.5-7.9,1.7-16.8,2.6-26.5,2.6-22.2,0-36.7-3.3-43.4-10-6.7-6.6-8.7-15.6-6.1-26.8.3-1.4.8-3.3,1.5-5.6l40,4.7c.1,3.8,1.1,6.4,2.9,7.9,2.6,2.1,6.3,3.2,11,3.2s11.1-1.6,14.8-4.9c3.8-3.3,6.6-8.9,8.5-17l4-16.7c-5.3,4.9-10.3,8.5-15,10.7-7.4,3.5-14.8,5.2-22.4,5.2-14.8,0-25.2-6.5-31.2-19.4-4.3-9.2-4.6-21.3-1-36.4,4.1-17.2,11.4-30.4,21.8-39.4,10.5-9,22.4-13.5,35.9-13.5s15.4,1.5,20.3,4.4c4.9,2.9,9,7.7,12.2,14.5l3.9-16.3Zm-160.1,0h39.7l-4.3,18.1c5.7-7.9,10.9-13.3,15.7-16.2,4.8-3,10.1-4.4,16.1-4.4s12.7,2,19.2,5.9l-20.3,30.1c-4.5-2.1-8.3-3.1-11.2-3.1-5.5,0-10.4,2.3-14.6,6.9-5.9,6.5-11,18.6-15.2,36.3l-8.8,37.2h-42.7l26.3-110.7Zm-64.5,58c-6.3,2.1-12.8,3.9-19.6,5.6-9.1,2.3-15.2,4.6-18,6.8-2.9,2.3-4.7,4.9-5.4,7.9-.8,3.4-.3,6.1,1.5,8.3,1.8,2.1,5,3.2,9.5,3.2s9.4-1.2,14-3.5c4.6-2.3,8.1-5.1,10.6-8.5,2.5-3.3,4.4-7.7,5.6-13l1.6-6.8Zm-31.4-22.2l-39.5-4.3c3.2-7.1,6.7-12.7,10.6-16.7,3.9-4.1,8.8-7.6,15-10.6,4.4-2.2,10.1-3.8,17.2-5,7.1-1.2,14.6-1.8,22.5-1.8,12.7,0,22.7.7,30.1,2.1,7.3,1.4,13.1,4.4,17.1,8.9,2.9,3.1,4.7,7.6,5.4,13.3.7,5.7.5,11.2-.8,16.4l-11.6,48.9c-1.2,5.2-1.9,9.3-1.9,12.3,0,2.9.5,6.7,1.6,11.3h-39.7c-.9-2.8-1.4-5-1.6-6.5-.1-1.5,0-3.8.2-7-6.8,5.3-13.2,9.1-19.3,11.4-8.2,3.1-17.3,4.6-27.2,4.6s-22.5-3.1-27.9-9.2c-5.4-6.1-7-13.7-4.9-22.6,2-8.4,6.1-15.4,12.3-20.8,6.2-5.4,16.3-9.5,30.2-12.1,16.6-3.2,27.5-5.4,32.5-6.8,5-1.3,10.4-3,16.2-5,1.2-5.2,1-8.9-.6-10.9-1.6-2.1-5.2-3.1-10.6-3.1s-12.4,1.1-16.4,3.3c-3.1,1.8-6.1,5-8.9,9.9Zm-86.7,12.4l38.4,12.5c-5.5,11.6-12.2,21.3-20,29-7.8,7.8-16.6,13.6-26.4,17.6-9.8,3.9-21.5,5.9-35.2,5.9s-29.6-2.4-39-7.2c-9.4-4.8-16.4-13.3-21.2-25.5-4.8-12.1-4.9-27.7-.4-46.6,6-25.2,17.3-44.6,34-58.2,16.7-13.5,37.3-20.3,61.9-20.3s33.5,3.9,42.6,11.7c9.1,7.8,14.5,19.7,16,35.9l-43.8,9.2c-.4-4.6-1.1-8-2.2-10.1-1.8-3.6-4.4-6.4-7.7-8.3-3.4-2-7.4-2.9-12.1-2.9-10.7,0-20,4.3-27.7,12.9-5.8,6.4-10.4,16.4-13.6,30-4,16.9-4.2,28.5-.5,34.8,3.7,6.3,10.1,9.4,19.5,9.4s16.5-2.5,22.3-7.6c5.8-5,10.9-12.4,15.3-22Z"/><path class="cls-1" d="m1281.6,320.6l10.9-1c.1,1.3.5,2.2,1.2,2.7.7.5,1.7.8,3,.8s2.6-.3,3.6-.9c.7-.5,1.2-1,1.3-1.7.2-.8,0-1.4-.8-1.8-.5-.3-2-.7-4.4-1.1-3.6-.7-6-1.3-7.4-1.8-1.3-.6-2.3-1.5-3-2.8-.7-1.3-.8-2.8-.4-4.5.4-1.9,1.4-3.4,2.7-4.8,1.4-1.3,3.1-2.3,5.2-3,2-.7,4.7-1,7.8-1s5.8.3,7.2.8c1.5.5,2.6,1.3,3.4,2.4.8,1.1,1.4,2.5,1.6,4.4l-10.4,1c0-.9-.3-1.6-.8-2-.7-.6-1.7-.8-2.9-.8s-2.1.2-2.8.7c-.7.4-1.1,1-1.2,1.6-.2.7,0,1.2.7,1.6.6.4,2.1.7,4.4,1,3.5.4,6,1,7.6,1.7,1.6.7,2.7,1.8,3.3,3.1.6,1.3.7,2.8.3,4.4-.4,1.6-1.2,3.2-2.6,4.7-1.3,1.5-3.2,2.8-5.5,3.7-2.3.9-5.3,1.4-8.9,1.4s-8.6-.7-10.4-2.2c-1.8-1.5-2.7-3.5-2.7-6.3m-14.4-20.3h10.1l-1.1,4.6c1.4-2,2.8-3.4,4-4.1,1.2-.8,2.6-1.1,4.1-1.1s3.2.5,4.9,1.5l-5.2,7.7c-1.1-.5-2.1-.8-2.8-.8-1.4,0-2.7.6-3.7,1.8-1.5,1.6-2.8,4.7-3.9,9.2l-2.2,9.4h-10.8l6.7-28.1Zm-14.6,11.6c.3-2.1,0-3.6-.6-4.5-.7-.9-1.8-1.4-3.3-1.4s-3.3.7-4.6,2c-.9.8-1.6,2.1-2.1,3.8h10.7Zm9.7,5.1h-21.6c-.2,1.7,0,3,.5,3.9.7,1.2,2,1.8,3.7,1.8s2.1-.3,3.2-.8c.7-.3,1.4-.9,2.3-1.8l10.4,1c-2.3,2.8-4.7,4.9-7.3,6.1-2.6,1.2-6,1.8-10.3,1.8s-6.5-.5-8.4-1.6c-1.9-1-3.3-2.7-4.1-5-.9-2.3-.9-5-.2-8.1,1-4.4,3.3-8,6.8-10.7,3.5-2.7,7.7-4.1,12.6-4.1s7.1.6,9.1,1.8c2,1.2,3.4,3,4.1,5.3.7,2.3.6,5.3-.3,9l-.3,1.2Zm-43.8-2.8c.5-2.2.4-3.9-.2-4.9-.7-1.1-1.7-1.6-3.2-1.6s-2.4.5-3.5,1.6c-1.1,1-1.9,2.8-2.5,5.3-.5,2.3-.5,4,.1,5.1.6,1.1,1.6,1.6,2.9,1.6s2.6-.5,3.8-1.6c1.2-1.1,2-2.8,2.6-5.3Zm16.7-24.6l-9.2,38.8h-10.1l1-4.2c-1.8,1.8-3.4,3-4.7,3.6-1.7.8-3.6,1.2-5.5,1.2-3.8,0-6.4-1.5-7.7-4.4-1.3-2.9-1.5-6.5-.5-10.6,1.1-4.7,3.1-8.2,5.9-10.7,2.8-2.5,5.9-3.7,9.4-3.7s3.1.3,4.4.8c1.2.6,2.2,1.4,3,2.5l3.2-13.4h10.9Zm-53.3,10.7h10.1l-1.1,4.6c1.4-2,2.8-3.4,4-4.1,1.2-.8,2.6-1.1,4.1-1.1s3.2.5,4.9,1.5l-5.2,7.7c-1.1-.5-2.1-.8-2.8-.8-1.4,0-2.7.6-3.7,1.8-1.5,1.6-2.8,4.7-3.9,9.2l-2.2,9.4h-10.8l6.7-28.1Zm-16.4,14.7c-1.6.5-3.3,1-5,1.4-2.3.6-3.9,1.2-4.6,1.7-.7.6-1.2,1.3-1.4,2-.2.9,0,1.6.4,2.1.5.5,1.3.8,2.4.8s2.4-.3,3.6-.9c1.2-.6,2.1-1.3,2.7-2.2.6-.8,1.1-2,1.4-3.3l.4-1.7Zm-8-5.6l-10-1.1c.8-1.8,1.7-3.2,2.7-4.3,1-1,2.2-1.9,3.8-2.7,1.1-.6,2.6-1,4.4-1.3,1.8-.3,3.7-.5,5.7-.5,3.2,0,5.8.2,7.6.5,1.9.4,3.3,1.1,4.3,2.3.7.8,1.2,1.9,1.4,3.4.2,1.5.1,2.8-.2,4.2l-3,12.4c-.3,1.3-.5,2.4-.5,3.1,0,.8.1,1.7.4,2.9h-10.1c-.2-.7-.4-1.3-.4-1.6,0-.4,0-1,0-1.8-1.7,1.4-3.4,2.3-4.9,2.9-2.1.8-4.4,1.2-6.9,1.2s-5.7-.8-7.1-2.3c-1.4-1.6-1.8-3.5-1.2-5.8.5-2.1,1.5-3.9,3.1-5.3,1.6-1.4,4.1-2.4,7.7-3.1,4.2-.8,7-1.4,8.3-1.7,1.3-.3,2.7-.8,4.1-1.3.3-1.3.3-2.2-.2-2.8-.4-.5-1.3-.8-2.7-.8s-3.1.3-4.2.8c-.8.5-1.5,1.3-2.3,2.5Zm-57.2-9.1h10.4l.3,17.7,9.9-17.7h9.6l1.7,17.7,8.7-17.7h10.4l-17,28.1h-9.6l-1.7-16.9-9.5,16.9h-9.6l-3.7-28.1Zm-16.6,0h10.1l-1.1,4.6c1.4-2,2.8-3.4,4-4.1,1.2-.8,2.6-1.1,4.1-1.1s3.2.5,4.9,1.5l-5.2,7.7c-1.1-.5-2.1-.8-2.8-.8-1.4,0-2.7.6-3.7,1.8-1.5,1.6-2.8,4.7-3.9,9.2l-2.2,9.4h-10.8l6.7-28.1Zm-26,14.1c-.6,2.5-.5,4.4.2,5.6.7,1.2,1.8,1.8,3.4,1.8s3-.6,4.2-1.8c1.3-1.2,2.2-3.1,2.8-5.7.6-2.4.5-4.3-.2-5.5-.7-1.2-1.8-1.8-3.3-1.8s-3,.6-4.3,1.8c-1.3,1.2-2.3,3.1-2.8,5.5Zm-10.8,0c1-4.3,3.3-7.8,6.9-10.6,3.6-2.8,7.8-4.2,12.7-4.2s9.5,1.6,11.6,4.9c1.7,2.6,2.1,5.9,1.2,9.7-1,4.3-3.3,7.9-6.8,10.6-3.5,2.8-7.8,4.1-12.9,4.1s-7.9-1.1-10.1-3.5c-2.7-2.8-3.6-6.6-2.5-11.2Zm-22.2-24.8h29.6l-2,8.3h-17.6l-1.6,6.8h15.1l-1.9,7.9h-15.1l-3.8,15.8h-12l9.2-38.8Zm-25.7,0l-2.5,10.7h5.9l-1.9,7.9h-5.9l-2.4,10c-.3,1.2-.4,2-.2,2.4.2.6.8.9,1.6.9s2-.2,3.5-.7l-1,7.5c-2.8.6-5.4.9-7.7.9s-4.6-.3-5.7-1c-1.1-.7-1.8-1.7-2.1-3.1-.3-1.4,0-3.7.7-6.8l2.3-9.9h-4l1.9-7.9h4l1.2-5.2,12.1-5.5Zm-45,0h10.8l-3.4,14.3c1.8-1.5,3.5-2.6,5.1-3.3,1.6-.7,3.4-1,5.4-1,2.9,0,5,.9,6.3,2.7,1.3,1.8,1.4,4.5.6,8.2l-4.2,17.9h-10.8l3.7-15.5c.4-1.8.4-3,0-3.7-.5-.7-1.3-1.1-2.5-1.1s-2.5.5-3.5,1.5c-1,1-1.9,2.8-2.5,5.3l-3.2,13.5h-10.8l9.2-38.8Zm-28.3,24.3c-.5,2-.4,3.5.2,4.5.6,1,1.7,1.5,3.1,1.5s2.6-.5,3.7-1.5c1.1-1,2-2.5,2.5-4.6.5-2.1.4-3.6-.3-4.7-.7-1.1-1.7-1.6-3.1-1.6s-2.6.5-3.7,1.5c-1.1,1-1.9,2.7-2.4,5Zm13.4-13.6h10.1l-6.3,26.5-.3,1.2c-.4,1.8-1.2,3.4-2.3,5-1.1,1.6-2.4,2.9-3.9,3.9-1.5,1-3.2,1.7-5.2,2.1-2,.4-4.3.7-6.7.7-5.6,0-9.3-.8-11-2.5-1.7-1.7-2.2-4-1.5-6.8,0-.4.2-.8.4-1.4l10.2,1.2c0,1,.3,1.6.7,2,.7.5,1.6.8,2.8.8s2.8-.4,3.8-1.2c1-.8,1.7-2.3,2.2-4.3l1-4.2c-1.4,1.3-2.6,2.2-3.8,2.7-1.9.9-3.8,1.3-5.7,1.3-3.8,0-6.4-1.6-7.9-4.9-1.1-2.3-1.2-5.4-.3-9.3,1-4.4,2.9-7.7,5.5-10,2.7-2.3,5.7-3.4,9.1-3.4s3.9.4,5.1,1.1c1.2.7,2.3,2,3.1,3.7l1-4.1Zm-33.1,0h10.8l-6.7,28.1h-10.8l6.7-28.1Zm2.5-10.7h10.8l-1.7,7.3h-10.8l1.7-7.3Zm-17.4,22.3c.3-2.1,0-3.6-.6-4.5-.7-.9-1.8-1.4-3.3-1.4s-3.3.7-4.6,2c-.9.8-1.6,2.1-2.1,3.8h10.7Zm9.7,5.1h-21.6c-.2,1.7,0,3,.5,3.9.7,1.2,2,1.8,3.7,1.8s2.1-.3,3.2-.8c.7-.3,1.4-.9,2.3-1.8l10.4,1c-2.3,2.8-4.7,4.9-7.3,6.1-2.6,1.2-6,1.8-10.3,1.8s-6.5-.5-8.4-1.6c-1.9-1-3.3-2.7-4.1-5-.9-2.3-.9-5-.2-8.1,1-4.4,3.3-8,6.8-10.7,3.5-2.7,7.7-4.1,12.6-4.1s7.1.6,9.1,1.8c2,1.2,3.4,3,4.1,5.3.7,2.3.6,5.3-.3,9l-.3,1.2Zm-47.9-16.7h10.1l-1.1,4.6c1.4-2,2.8-3.4,4-4.1,1.2-.8,2.6-1.1,4.1-1.1s3.2.5,4.9,1.5l-5.2,7.7c-1.1-.5-2.1-.8-2.8-.8-1.4,0-2.7.6-3.7,1.8-1.5,1.6-2.8,4.7-3.9,9.2l-2.2,9.4h-10.8l6.7-28.1Zm-26.9-10.7h29.6l-2,8.3h-17.6l-1.6,6.8h15.1l-1.9,7.9h-15.1l-3.8,15.8h-12l9.2-38.8Zm-32.3,0h10.8l-9.2,38.8h-10.8l9.2-38.8Zm-19.2,25.4c-1.6.5-3.3,1-5,1.4-2.3.6-3.9,1.2-4.6,1.7-.7.6-1.2,1.3-1.4,2-.2.9,0,1.6.4,2.1.5.5,1.3.8,2.4.8s2.4-.3,3.6-.9c1.2-.6,2.1-1.3,2.7-2.2.6-.8,1.1-2,1.4-3.3l.4-1.7Zm-8-5.6l-10-1.1c.8-1.8,1.7-3.2,2.7-4.3,1-1,2.2-1.9,3.8-2.7,1.1-.6,2.6-1,4.4-1.3,1.8-.3,3.7-.5,5.7-.5,3.2,0,5.8.2,7.6.5,1.9.4,3.3,1.1,4.3,2.3.7.8,1.2,1.9,1.4,3.4.2,1.5.1,2.8-.2,4.2l-3,12.4c-.3,1.3-.5,2.4-.5,3.1,0,.8.1,1.7.4,2.9h-10.1c-.2-.7-.4-1.3-.4-1.6,0-.4,0-1,0-1.8-1.7,1.4-3.4,2.3-4.9,2.9-2.1.8-4.4,1.2-6.9,1.2s-5.7-.8-7.1-2.3c-1.4-1.6-1.8-3.5-1.2-5.8.5-2.1,1.6-3.9,3.1-5.3,1.6-1.4,4.1-2.4,7.7-3.1,4.2-.8,7-1.4,8.3-1.7,1.3-.3,2.7-.8,4.1-1.3.3-1.3.3-2.2-.2-2.8-.4-.5-1.3-.8-2.7-.8s-3.1.3-4.2.8c-.8.5-1.5,1.3-2.3,2.5Zm-39.7-9.1h10l-1.1,4.6c1.9-1.9,3.8-3.2,5.5-4,1.7-.8,3.7-1.2,5.9-1.2s5.1.9,6.4,2.7c1.3,1.8,1.4,4.5.6,8.2l-4.2,17.9h-10.8l3.7-15.5c.4-1.8.4-3,0-3.7-.5-.7-1.3-1.1-2.5-1.1s-2.5.5-3.5,1.5c-1,1-1.9,2.8-2.5,5.3l-3.2,13.5h-10.8l6.7-28.1Zm-25.9,14.1c-.6,2.5-.5,4.4.2,5.6.7,1.2,1.8,1.8,3.4,1.8s3-.6,4.2-1.8c1.3-1.2,2.2-3.1,2.8-5.7.6-2.4.5-4.3-.2-5.5-.7-1.2-1.8-1.8-3.3-1.8s-3,.6-4.3,1.8c-1.3,1.2-2.3,3.1-2.8,5.5Zm-10.8,0c1-4.3,3.3-7.8,6.9-10.6,3.6-2.8,7.8-4.2,12.7-4.2s9.5,1.6,11.6,4.9c1.7,2.6,2.1,5.9,1.2,9.7-1,4.3-3.3,7.9-6.8,10.6-3.5,2.8-7.8,4.1-12.9,4.1s-7.9-1.1-10.1-3.5c-2.7-2.8-3.6-6.6-2.5-11.2Zm-8.8-14.1h10.8l-6.7,28.1h-10.8l6.7-28.1Zm2.5-10.7h10.8l-1.7,7.3h-10.8l1.7-7.3Zm-7.3,0l-2.5,10.7h5.9l-1.9,7.9h-5.9l-2.4,10c-.3,1.2-.4,2-.2,2.4.2.6.8.9,1.6.9s2-.2,3.5-.7l-1,7.5c-2.8.6-5.4.9-7.7.9s-4.6-.3-5.7-1c-1.1-.7-1.8-1.7-2.1-3.1-.3-1.4,0-3.7.7-6.8l2.3-9.9h-4l1.9-7.9h4l1.2-5.2,12.1-5.5Zm-30.9,25.4c-1.6.5-3.3,1-5,1.4-2.3.6-3.9,1.2-4.6,1.7-.7.6-1.2,1.3-1.4,2-.2.9,0,1.6.4,2.1.5.5,1.3.8,2.4.8s2.4-.3,3.6-.9c1.2-.6,2.1-1.3,2.7-2.2.6-.8,1.1-2,1.4-3.3l.4-1.7Zm-8-5.6l-10-1.1c.8-1.8,1.7-3.2,2.7-4.3,1-1,2.2-1.9,3.8-2.7,1.1-.6,2.6-1,4.4-1.3,1.8-.3,3.7-.5,5.7-.5,3.2,0,5.8.2,7.6.5,1.9.4,3.3,1.1,4.3,2.3.7.8,1.2,1.9,1.4,3.4.2,1.5.1,2.8-.2,4.2l-3,12.4c-.3,1.3-.5,2.4-.5,3.1,0,.8.1,1.7.4,2.9h-10.1c-.2-.7-.4-1.3-.4-1.6,0-.4,0-1,0-1.8-1.7,1.4-3.4,2.3-4.9,2.9-2.1.8-4.4,1.2-6.9,1.2s-5.7-.8-7.1-2.3c-1.4-1.6-1.8-3.5-1.2-5.8.5-2.1,1.5-3.9,3.1-5.3,1.6-1.4,4.1-2.4,7.7-3.1,4.2-.8,7-1.4,8.3-1.7,1.3-.3,2.7-.8,4.1-1.3.3-1.3.3-2.2-.2-2.8-.4-.5-1.3-.8-2.7-.8s-3.1.3-4.2.8c-.8.5-1.5,1.3-2.3,2.5Zm-39.7-9.1h10l-1.1,4.6c1.9-1.9,3.8-3.2,5.5-4,1.7-.8,3.7-1.2,5.9-1.2s5.1.9,6.4,2.7c1.3,1.8,1.4,4.5.6,8.2l-4.2,17.9h-10.8l3.7-15.5c.4-1.8.4-3,0-3.7-.5-.7-1.3-1.1-2.5-1.1s-2.5.5-3.5,1.5c-1,1-1.9,2.8-2.5,5.3l-3.2,13.5h-10.8l6.7-28.1Zm-22.5,0h10.1l-1.1,4.6c1.4-2,2.8-3.4,4-4.1,1.2-.8,2.6-1.1,4.1-1.1s3.2.5,4.9,1.5l-5.2,7.7c-1.1-.5-2.1-.8-2.8-.8-1.4,0-2.7.6-3.7,1.8-1.5,1.6-2.8,4.7-3.9,9.2l-2.2,9.4h-10.8l6.7-28.1Zm-14.6,11.6c.3-2.1,0-3.6-.6-4.5-.7-.9-1.8-1.4-3.3-1.4s-3.3.7-4.6,2c-.9.8-1.6,2.1-2.2,3.8h10.7Zm9.7,5.1h-21.6c-.2,1.7,0,3,.5,3.9.7,1.2,2,1.8,3.7,1.8s2.1-.3,3.2-.8c.7-.3,1.4-.9,2.3-1.8l10.4,1c-2.3,2.8-4.7,4.9-7.3,6.1-2.6,1.2-6,1.8-10.3,1.8s-6.5-.5-8.4-1.6c-1.9-1-3.3-2.7-4.1-5-.9-2.3-.9-5-.2-8.1,1-4.4,3.3-8,6.8-10.7,3.5-2.7,7.7-4.1,12.6-4.1s7.1.6,9.1,1.8,3.4,3,4.1,5.3c.7,2.3.6,5.3-.3,9l-.3,1.2Zm-31.6-27.4l-2.5,10.7h5.9l-1.9,7.9h-5.9l-2.4,10c-.3,1.2-.4,2-.2,2.4.2.6.8.9,1.6.9s2-.2,3.5-.7l-1,7.5c-2.8.6-5.4.9-7.7.9s-4.6-.3-5.7-1c-1.1-.7-1.8-1.7-2.1-3.1-.3-1.4,0-3.7.7-6.8l2.3-9.9h-4l1.9-7.9h4l1.2-5.2,12.1-5.5Zm-47.5,10.7h10l-1.1,4.6c1.9-1.9,3.8-3.2,5.5-4,1.7-.8,3.7-1.2,5.9-1.2s5.1.9,6.4,2.7c1.3,1.8,1.4,4.5.6,8.2l-4.2,17.9h-10.8l3.7-15.5c.4-1.8.4-3,0-3.7-.5-.7-1.3-1.1-2.5-1.1s-2.5.5-3.5,1.5c-1,1-1.9,2.8-2.5,5.3l-3.2,13.5h-10.8l6.7-28.1Zm-13.2-10.7h12l-9.2,38.8h-12l9.2-38.8Z"/><path class="cls-2" d="m368.2,0C388,0,407.1,3,425,8.5l-44.1,51.2h0c-4.2-.4-8.4-.6-12.7-.6-73.9,0-133.7,59.9-133.7,133.7s59.9,133.7,133.7,133.7,8.8-.2,13-.6l-.3.6,43.7,50.7c-17.8,5.4-36.8,8.4-56.4,8.4-106.5,0-192.8-86.3-192.8-192.8S261.7,0,368.2,0"/><path class="cls-2" d="m238,161.9H62.7c14-58.9,66.9-102.8,130.1-102.8s9,.2,13.3.7c15.4-18.8,34.1-34.8,55-47.3C240,4.4,216.9,0,192.8,0,86.3,0,0,86.3,0,192.8s86.3,192.8,192.8,192.8,47.1-4.4,68.4-12.5c-21-12.5-39.6-28.5-55-47.3-4.4.4-8.8.7-13.3.7-63,0-115.8-43.6-130-102.2h175.3c-2.4-10.1-3.7-20.6-3.7-31.4s1.3-21.1,3.6-31Z"/><path class="cls-2" d="m478.4,195c0-61.6-49.9-111.5-111.5-111.5s-92.4,33-106.5,78.5h75v-34.7l64,32.8,64,32.8-64,32.8-64,32.8v-34.1h-76.1c12.9,47.4,56.2,82.2,107.6,82.2s111.5-49.9,111.5-111.5Z"/></svg>