<?xml version="1.0" encoding="UTF-8"?> <svg xmlns="http://www.w3.org/2000/svg" xmlns:xlink="http://www.w3.org/1999/xlink" version="1.1" id="Capa_1" x="0px" y="0px" viewBox="0 0 113 60" style="enable-background:new 0 0 113 60;" xml:space="preserve"> <style type="text/css"> .st0{fill:#FFFFFF;} </style> <path class="st0" d="M108,49.7H5c-2.7,0-4.9-2.2-4.9-4.9V16.7c0-1.9,1.1-3.6,2.8-4.4c9-4.2,31.8-12.2,53.6-12.2 c21.6,0,44.2,7.8,53.3,12.1l0,0l0.2,0.1c1.7,0.8,2.8,2.5,2.8,4.4v28.1C112.9,47.5,110.7,49.7,108,49.7z M56.5,2.5 c-21.4,0-43.7,7.8-52.6,12c-0.9,0.4-1.5,1.3-1.5,2.3v28.1c0,1.4,1.1,2.5,2.5,2.5h103c1.4,0,2.5-1.1,2.5-2.5V16.7 c0-0.9-0.5-1.8-1.3-2.2l-0.1-0.1C100.2,10.3,77.9,2.5,56.5,2.5z"></path> <path class="st0" d="M14.1,37.6L14,18.1L11.5,19v21.2h8c-1-1.1-1.4-2.6-1.4-2.6L14.1,37.6L14.1,37.6z"></path> <path class="st0" d="M25.9,35.6c0,0.7-0.2,1.2-0.5,1.6c-0.3,0.4-0.7,0.6-1.2,0.6s-0.9-0.2-1.3-0.5c-0.3-0.4-0.5-0.9-0.5-1.5V15.4 l-2.6,0.8v19.5c0,1.5,0.4,2.6,1.2,3.6c0.8,0.9,1.9,1.4,3.1,1.4c1.3,0,2.4-0.5,3.1-1.5c0.8-1,1.2-2.3,1.1-3.9V13.8L26,14.5L25.9,35.6 L25.9,35.6z"></path> <path class="st0" d="M36.8,25.2c-1.2-4.3-3.7-12.4-3.7-12.4l-1.8,0.4v27h2.6V23.7c1,3.3,1.7,6.5,2.7,10v0.1H37v-0.1 c1-3.5,2-7,3-10.8v17.3h2.6V11.1l-2.4,0.3C38.9,16.7,37.8,21,36.8,25.2L36.8,25.2z"></path> <path class="st0" d="M45.6,40.2h2.6V10.5c0,0-1.7,0.2-2.6,0.2V40.2z"></path> <path class="st0" d="M54.1,10.2c-1,0-1.6,0.1-2.6,0.1v29.9h5.7l0.2-2.6h-3.3C54.1,35.4,54.1,10.2,54.1,10.2L54.1,10.2z"></path> <path class="st0" d="M61.4,10.3l-2.8,29.9h2.6l0.7-7.2h3.6l0.6,7.2h2.4L66,10.6C65.9,10.6,63.8,10.4,61.4,10.3L61.4,10.3z M62.1,30.4c0.5-5.4,1.1-11.4,1.6-16.7l0,0c0.5,5.4,1,11.3,1.5,16.7H62.1L62.1,30.4z"></path> <path class="st0" d="M90.4,25.2v-4.7c0-1.5-0.3-2.8-1-4c-0.8-1.2-1.8-1.9-3.1-2.2c-1.4-0.4-4.7-1.1-4.7-1.1v27.1h2.6v-11h1.3 c0.8,3.4,1.8,7.6,2.5,10.9h2.7L88,28.9C89.4,28.2,90.4,26.6,90.4,25.2L90.4,25.2z M87.3,26.3c-0.3,0.3-0.7,0.4-1.2,0.4h-1.9V16.6 c0.6,0.1,1.3,0.3,2,0.5c0.5,0.1,0.9,0.4,1.3,0.9c0.3,0.5,0.4,1,0.4,1.7v5.2C87.8,25.5,87.6,26,87.3,26.3L87.3,26.3z"></path> <path class="st0" d="M96.3,17.1c-1.9-0.1-3.4,1.1-3.4,4v14.5c0,1.5,0.4,2.7,1.2,3.6c0.8,0.9,1.8,1.3,3.1,1.3l0,0 c1.3,0,2.3-0.4,3.1-1.2c0.8-0.8,1.2-1.8,1.2-3.1V23.4C101.5,19.3,98.4,17.2,96.3,17.1L96.3,17.1z M98.9,36.4c0,0.5-0.2,1-0.5,1.3 s-0.7,0.5-1.3,0.5c-0.5,0-0.9-0.2-1.2-0.6c-0.3-0.4-0.5-0.8-0.5-1.4c0,0,0-13.3,0-13.9c0-1,0.1-2.3,1.2-2.3s2.3,1.5,2.3,3.3V36.4 L98.9,36.4z"></path> <path class="st0" d="M75.1,29.3h1.4v1.4l-0.1,5.2c0,0.7-0.2,1.2-0.5,1.6c-0.3,0.4-0.7,0.6-1.2,0.6s-0.9-0.2-1.3-0.5 c-0.3-0.4-0.5-0.9-0.5-1.5V25.7V17v-1.2l0,0c0-0.5,0.1-1,0.4-1.3S74,14,74.5,14s0.9,0.2,1.2,0.6c0.3,0.4,0.5,0.8,0.5,1.4v0.9 c0,0.9,0,1.8,0,3.9l2.6,0.5c0-1.5,0-2.4,0-3.2l0,0v-1.7c0-1.5-0.4-2.7-1.1-3.5c-0.8-0.9-1.8-1.3-3.1-1.3l0,0c-1.3,0-2.3,0.4-3.1,1.2 c-0.8,0.8-1.2,1.8-1.2,3.1V18c0,0,0,7,0,7.7v10c0,1.5,0.4,2.6,1.2,3.6c0.8,0.9,1.9,1.4,3.1,1.4c1.3,0,2.4-0.5,3.1-1.5 c0.8-1,1.2-2.3,1.1-3.9v-4.6v-4h-3.9L75.1,29.3L75.1,29.3z"></path> </svg> 